<svg width="228" height="18" viewBox="0 0 228 18" fill="none" xmlns="http://www.w3.org/2000/svg">
<path d="M7.44832 17.3259C6.51715 17.3259 5.62478 17.2483 4.77122 17.0931C3.91765 16.9534 3.14168 16.7517 2.44331 16.4879C1.74493 16.2085 1.14743 15.9059 0.650813 15.58L2.46658 12.1347C3.02528 12.4761 3.5995 12.771 4.18924 13.0193C4.7945 13.2521 5.40751 13.4305 6.02829 13.5547C6.64907 13.6788 7.26984 13.7409 7.89062 13.7409C8.48036 13.7409 8.98474 13.6866 9.40376 13.578C9.82279 13.4538 10.1409 13.2831 10.3582 13.0658C10.5755 12.8486 10.6841 12.5925 10.6841 12.2976C10.6841 11.9717 10.5367 11.7156 10.2418 11.5294C9.96246 11.3277 9.58999 11.1569 9.12441 11.0173C8.65883 10.8776 8.13893 10.7379 7.56471 10.5982C7.00601 10.443 6.43955 10.2646 5.86534 10.0628C5.30664 9.84555 4.7945 9.58172 4.32891 9.27133C3.86333 8.94542 3.48311 8.53416 3.18824 8.03754C2.90889 7.54092 2.76921 6.9279 2.76921 6.19849C2.76921 5.01901 3.08736 3.99473 3.72366 3.12565C4.35995 2.25656 5.26008 1.58146 6.42403 1.10036C7.60351 0.61926 8.9925 0.378709 10.591 0.378709C11.755 0.378709 12.8413 0.502865 13.8501 0.751176C14.8588 0.983967 15.7279 1.32539 16.4573 1.77546L14.7812 5.19749C14.1449 4.79398 13.4388 4.49135 12.6628 4.2896C11.9024 4.07233 11.1187 3.96369 10.3116 3.96369C9.69087 3.96369 9.15545 4.03353 8.70539 4.17321C8.27084 4.31288 7.93718 4.50687 7.70439 4.75518C7.48711 4.98797 7.37848 5.2518 7.37848 5.54667C7.37848 5.85706 7.51815 6.11313 7.7975 6.31488C8.07685 6.51664 8.44932 6.68735 8.9149 6.82703C9.396 6.9667 9.9159 7.11413 10.4746 7.26933C11.0488 7.409 11.6153 7.57972 12.174 7.78147C12.7327 7.9677 13.2526 8.22377 13.7337 8.54968C14.2148 8.86007 14.595 9.25581 14.8744 9.73692C15.1537 10.218 15.2934 10.8155 15.2934 11.5294C15.2934 12.6934 14.9752 13.7099 14.3389 14.579C13.7026 15.4481 12.7948 16.1232 11.6153 16.6043C10.4358 17.0854 9.04682 17.3259 7.44832 17.3259ZM16.4448 17L19.7039 0.704617H26.6643C28.7594 0.704617 30.3735 1.16244 31.5064 2.07808C32.6548 2.99373 33.229 4.26632 33.229 5.89586C33.229 7.26157 32.8954 8.45656 32.228 9.48084C31.5762 10.4896 30.645 11.2733 29.4345 11.832C28.224 12.3907 26.7962 12.6701 25.1512 12.6701H19.8668L22.3111 10.6914L21.0541 17H16.4448ZM26.6643 17L23.3354 11.0638H28.1076L31.4831 17H26.6643ZM22.1947 11.2268L20.5885 9.10838H25.3607C26.385 9.10838 27.1765 8.86783 27.7352 8.38673C28.2939 7.90562 28.5732 7.22277 28.5732 6.33816C28.5732 5.65531 28.3482 5.15093 27.8981 4.82502C27.448 4.49911 26.8195 4.33616 26.0125 4.33616H21.5662L24.0338 2.14792L22.1947 11.2268ZM33.6768 17L36.9359 0.704617H41.5451L38.2861 17H33.6768ZM46.5249 17L42.8235 0.704617H47.5491L50.6685 14.835H47.6655L56.5349 0.704617H61.2838L51.0643 17H46.5249ZM56.4781 17L66.9305 0.704617H71.4699L75.4041 17H70.8181L67.9082 2.89285H69.724L61.3435 17H56.4781ZM61.0408 13.834L62.9032 10.4353H70.8646L71.3768 13.834H61.0408ZM76.7341 17L79.9931 0.704617H86.9536C89.0487 0.704617 90.6627 1.16244 91.7957 2.07808C92.9441 2.99373 93.5183 4.26632 93.5183 5.89586C93.5183 7.26157 93.1846 8.45656 92.5173 9.48084C91.8655 10.4896 90.9343 11.2733 89.7238 11.832C88.5133 12.3907 87.0855 12.6701 85.4405 12.6701H80.1561L82.6004 10.6914L81.3433 17H76.7341ZM86.9536 17L83.6247 11.0638H88.3969L91.7724 17H86.9536ZM82.484 11.2268L80.8777 9.10838H85.65C86.6742 9.10838 87.4657 8.86783 88.0244 8.38673C88.5831 7.90562 88.8625 7.22277 88.8625 6.33816C88.8625 5.65531 88.6374 5.15093 88.1874 4.82502C87.7373 4.49911 87.1088 4.33616 86.3018 4.33616H81.8555L84.3231 2.14792L82.484 11.2268ZM101.904 17.3259C100.275 17.3259 98.909 17.0155 97.8071 16.3947C96.7208 15.7584 95.9525 14.8738 95.5025 13.7409C95.0524 12.5925 94.9748 11.2578 95.2697 9.73692L97.0855 0.704617H101.695L99.9022 9.66708C99.7781 10.3189 99.7393 10.8854 99.7858 11.3665C99.8324 11.8476 99.9643 12.2511 100.182 12.577C100.414 12.9029 100.717 13.1434 101.089 13.2986C101.477 13.4383 101.935 13.5081 102.463 13.5081C103.099 13.5081 103.65 13.384 104.116 13.1357C104.597 12.8718 104.993 12.4606 105.303 11.9019C105.629 11.3277 105.877 10.5827 106.048 9.66708L107.84 0.704617H112.38L110.541 9.94643C110.06 12.3675 109.097 14.2065 107.654 15.4636C106.211 16.7051 104.294 17.3259 101.904 17.3259ZM119.041 17L122.3 0.704617H126.048L130.541 11.8088H128.562L137.269 0.704617H141.203L137.99 17H133.73L135.662 7.12965L136.431 7.10637L129.982 15.3937H127.957L124.442 7.0831L125.257 7.15293L123.278 17H119.041ZM150.051 17.3259C148.375 17.3259 146.932 17.0233 145.721 16.418C144.511 15.7972 143.58 14.9514 142.928 13.8806C142.276 12.8098 141.95 11.5682 141.95 10.1559C141.95 8.72815 142.198 7.42452 142.695 6.24505C143.192 5.05005 143.89 4.01801 144.79 3.14892C145.69 2.26432 146.761 1.58146 148.003 1.10036C149.26 0.61926 150.633 0.378709 152.123 0.378709C153.799 0.378709 155.243 0.689097 156.453 1.30987C157.664 1.91513 158.595 2.75318 159.247 3.82402C159.898 4.89486 160.224 6.13641 160.224 7.54868C160.224 8.97646 159.976 10.2879 159.479 11.4828C158.983 12.6623 158.284 13.6944 157.384 14.579C156.484 15.4481 155.405 16.1232 154.148 16.6043C152.907 17.0854 151.541 17.3259 150.051 17.3259ZM150.447 13.5081C151.254 13.5081 151.968 13.3607 152.589 13.0658C153.225 12.771 153.76 12.3597 154.195 11.832C154.645 11.2889 154.986 10.6758 155.219 9.99298C155.452 9.31013 155.568 8.58848 155.568 7.82803C155.568 7.09861 155.413 6.46232 155.103 5.91914C154.808 5.37596 154.373 4.95694 153.799 4.66207C153.241 4.35168 152.55 4.19649 151.727 4.19649C150.936 4.19649 150.222 4.34392 149.586 4.63879C148.949 4.93366 148.406 5.35268 147.956 5.89586C147.522 6.42352 147.188 7.02878 146.955 7.71163C146.722 8.39449 146.606 9.11614 146.606 9.87659C146.606 10.5905 146.753 11.2268 147.048 11.7855C147.359 12.3287 147.793 12.7554 148.352 13.0658C148.926 13.3607 149.624 13.5081 150.447 13.5081ZM164.157 17L166.694 4.35944H161.689L162.434 0.704617H177.03L176.285 4.35944H171.304L168.766 17H164.157ZM184.061 17.3259C182.385 17.3259 180.941 17.0233 179.731 16.418C178.52 15.7972 177.589 14.9514 176.937 13.8806C176.285 12.8098 175.959 11.5682 175.959 10.1559C175.959 8.72815 176.208 7.42452 176.704 6.24505C177.201 5.05005 177.899 4.01801 178.8 3.14892C179.7 2.26432 180.77 1.58146 182.012 1.10036C183.269 0.61926 184.643 0.378709 186.132 0.378709C187.809 0.378709 189.252 0.689097 190.462 1.30987C191.673 1.91513 192.604 2.75318 193.256 3.82402C193.908 4.89486 194.234 6.13641 194.234 7.54868C194.234 8.97646 193.985 10.2879 193.489 11.4828C192.992 12.6623 192.294 13.6944 191.394 14.579C190.493 15.4481 189.415 16.1232 188.158 16.6043C186.916 17.0854 185.55 17.3259 184.061 17.3259ZM184.456 13.5081C185.263 13.5081 185.977 13.3607 186.598 13.0658C187.234 12.771 187.77 12.3597 188.204 11.832C188.654 11.2889 188.996 10.6758 189.229 9.99298C189.461 9.31013 189.578 8.58848 189.578 7.82803C189.578 7.09861 189.423 6.46232 189.112 5.91914C188.817 5.37596 188.383 4.95694 187.809 4.66207C187.25 4.35168 186.559 4.19649 185.737 4.19649C184.945 4.19649 184.231 4.34392 183.595 4.63879C182.959 4.93366 182.416 5.35268 181.965 5.89586C181.531 6.42352 181.197 7.02878 180.964 7.71163C180.732 8.39449 180.615 9.11614 180.615 9.87659C180.615 10.5905 180.763 11.2268 181.058 11.7855C181.368 12.3287 181.803 12.7554 182.361 13.0658C182.935 13.3607 183.634 13.5081 184.456 13.5081ZM194.948 17L198.207 0.704617H205.168C207.263 0.704617 208.877 1.16244 210.01 2.07808C211.158 2.99373 211.733 4.26632 211.733 5.89586C211.733 7.26157 211.399 8.45656 210.732 9.48084C210.08 10.4896 209.149 11.2733 207.938 11.832C206.728 12.3907 205.3 12.6701 203.655 12.6701H198.37L200.815 10.6914L199.558 17H194.948ZM205.168 17L201.839 11.0638H206.611L209.987 17H205.168ZM200.698 11.2268L199.092 9.10838H203.864C204.889 9.10838 205.68 8.86783 206.239 8.38673C206.797 7.90562 207.077 7.22277 207.077 6.33816C207.077 5.65531 206.852 5.15093 206.402 4.82502C205.952 4.49911 205.323 4.33616 204.516 4.33616H200.07L202.537 2.14792L200.698 11.2268ZM218.256 17.3259C217.325 17.3259 216.433 17.2483 215.579 17.0931C214.726 16.9534 213.95 16.7517 213.251 16.4879C212.553 16.2085 211.955 15.9059 211.459 15.58L213.274 12.1347C213.833 12.4761 214.407 12.771 214.997 13.0193C215.602 13.2521 216.215 13.4305 216.836 13.5547C217.457 13.6788 218.078 13.7409 218.698 13.7409C219.288 13.7409 219.793 13.6866 220.212 13.578C220.631 13.4538 220.949 13.2831 221.166 13.0658C221.383 12.8486 221.492 12.5925 221.492 12.2976C221.492 11.9717 221.345 11.7156 221.05 11.5294C220.77 11.3277 220.398 11.1569 219.932 11.0173C219.467 10.8776 218.947 10.7379 218.373 10.5982C217.814 10.443 217.247 10.2646 216.673 10.0628C216.114 9.84555 215.602 9.58172 215.137 9.27133C214.671 8.94542 214.291 8.53416 213.996 8.03754C213.717 7.54092 213.577 6.9279 213.577 6.19849C213.577 5.01901 213.895 3.99473 214.532 3.12565C215.168 2.25656 216.068 1.58146 217.232 1.10036C218.411 0.61926 219.8 0.378709 221.399 0.378709C222.563 0.378709 223.649 0.502865 224.658 0.751176C225.667 0.983967 226.536 1.32539 227.265 1.77546L225.589 5.19749C224.953 4.79398 224.247 4.49135 223.471 4.2896C222.71 4.07233 221.927 3.96369 221.12 3.96369C220.499 3.96369 219.963 4.03353 219.513 4.17321C219.079 4.31288 218.745 4.50687 218.512 4.75518C218.295 4.98797 218.186 5.2518 218.186 5.54667C218.186 5.85706 218.326 6.11313 218.605 6.31488C218.885 6.51664 219.257 6.68735 219.723 6.82703C220.204 6.9667 220.724 7.11413 221.282 7.26933C221.857 7.409 222.423 7.57972 222.982 7.78147C223.541 7.9677 224.06 8.22377 224.542 8.54968C225.023 8.86007 225.403 9.25581 225.682 9.73692C225.962 10.218 226.101 10.8155 226.101 11.5294C226.101 12.6934 225.783 13.7099 225.147 14.579C224.511 15.4481 223.603 16.1232 222.423 16.6043C221.244 17.0854 219.855 17.3259 218.256 17.3259Z" fill="black"/>
</svg>
