<svg width="205" height="18" viewBox="0 0 205 18" fill="none" xmlns="http://www.w3.org/2000/svg">
<path d="M7.44832 17.0632C6.51715 17.0632 5.62478 16.9856 4.77122 16.8304C3.91765 16.6907 3.14168 16.489 2.44331 16.2252C1.74493 15.9458 1.14743 15.6432 0.650813 15.3173L2.46658 11.872C3.02528 12.2134 3.5995 12.5083 4.18924 12.7566C4.7945 12.9894 5.40751 13.1678 6.02829 13.292C6.64907 13.4162 7.26984 13.4782 7.89062 13.4782C8.48036 13.4782 8.98474 13.4239 9.40376 13.3153C9.82279 13.1911 10.1409 13.0204 10.3582 12.8031C10.5755 12.5859 10.6841 12.3298 10.6841 12.0349C10.6841 11.709 10.5367 11.4529 10.2418 11.2667C9.96246 11.065 9.58999 10.8942 9.12441 10.7546C8.65883 10.6149 8.13893 10.4752 7.56471 10.3355C7.00601 10.1804 6.43955 10.0019 5.86534 9.80013C5.30664 9.58286 4.7945 9.31903 4.32891 9.00864C3.86333 8.68273 3.48311 8.27147 3.18824 7.77484C2.90889 7.27822 2.76921 6.66521 2.76921 5.93579C2.76921 4.75632 3.08736 3.73204 3.72366 2.86295C4.35995 1.99386 5.26008 1.31877 6.42403 0.837667C7.60351 0.356565 8.9925 0.116014 10.591 0.116014C11.755 0.116014 12.8413 0.240169 13.8501 0.48848C14.8588 0.721271 15.7279 1.0627 16.4573 1.51276L14.7812 4.93479C14.1449 4.53129 13.4388 4.22866 12.6628 4.02691C11.9024 3.80963 11.1187 3.701 10.3116 3.701C9.69087 3.701 9.15545 3.77084 8.70539 3.91051C8.27084 4.05018 7.93718 4.24418 7.70439 4.49249C7.48711 4.72528 7.37848 4.98911 7.37848 5.28398C7.37848 5.59437 7.51815 5.85044 7.7975 6.05219C8.07685 6.25394 8.44932 6.42466 8.9149 6.56433C9.396 6.704 9.9159 6.85144 10.4746 7.00663C11.0488 7.14631 11.6153 7.31702 12.174 7.51877C12.7327 7.70501 13.2526 7.96108 13.7337 8.28698C14.2148 8.59737 14.595 8.99312 14.8744 9.47422C15.1537 9.95532 15.2934 10.5528 15.2934 11.2667C15.2934 12.4307 14.9752 13.4472 14.3389 14.3163C13.7026 15.1854 12.7948 15.8605 11.6153 16.3416C10.4358 16.8227 9.04682 17.0632 7.44832 17.0632ZM16.4448 16.7373L19.7039 0.441921H26.6643C28.7594 0.441921 30.3735 0.899744 31.5064 1.81539C32.6548 2.73104 33.229 4.00363 33.229 5.63316C33.229 6.99887 32.8954 8.19387 32.228 9.21815C31.5762 10.2269 30.645 11.0106 29.4345 11.5693C28.224 12.128 26.7962 12.4074 25.1512 12.4074H19.8668L22.3111 10.4287L21.0541 16.7373H16.4448ZM26.6643 16.7373L23.3354 10.8011H28.1076L31.4831 16.7373H26.6643ZM22.1947 10.9641L20.5885 8.84568H25.3607C26.385 8.84568 27.1765 8.60513 27.7352 8.12403C28.2939 7.64293 28.5732 6.96007 28.5732 6.07547C28.5732 5.39261 28.3482 4.88823 27.8981 4.56233C27.448 4.23642 26.8195 4.07346 26.0125 4.07346H21.5662L24.0338 1.88523L22.1947 10.9641ZM33.6768 16.7373L36.9359 0.441921H41.5451L38.2861 16.7373H33.6768ZM46.5249 16.7373L42.8235 0.441921H47.5491L50.6685 14.5723H47.6655L56.5349 0.441921H61.2838L51.0643 16.7373H46.5249ZM56.4781 16.7373L66.9305 0.441921H71.4699L75.4041 16.7373H70.8181L67.9082 2.63016H69.724L61.3435 16.7373H56.4781ZM61.0408 13.5713L62.9032 10.1726H70.8646L71.3768 13.5713H61.0408ZM76.7341 16.7373L79.9931 0.441921H86.9536C89.0487 0.441921 90.6627 0.899744 91.7957 1.81539C92.9441 2.73104 93.5183 4.00363 93.5183 5.63316C93.5183 6.99887 93.1846 8.19387 92.5173 9.21815C91.8655 10.2269 90.9343 11.0106 89.7238 11.5693C88.5133 12.128 87.0855 12.4074 85.4405 12.4074H80.1561L82.6004 10.4287L81.3433 16.7373H76.7341ZM86.9536 16.7373L83.6247 10.8011H88.3969L91.7724 16.7373H86.9536ZM82.484 10.9641L80.8777 8.84568H85.65C86.6742 8.84568 87.4657 8.60513 88.0244 8.12403C88.5831 7.64293 88.8625 6.96007 88.8625 6.07547C88.8625 5.39261 88.6374 4.88823 88.1874 4.56233C87.7373 4.23642 87.1088 4.07346 86.3018 4.07346H81.8555L84.3231 1.88523L82.484 10.9641ZM101.904 17.0632C100.275 17.0632 98.909 16.7528 97.8071 16.132C96.7208 15.4958 95.9525 14.6111 95.5025 13.4782C95.0524 12.3298 94.9748 10.9951 95.2697 9.47422L97.0855 0.441921H101.695L99.9022 9.40438C99.7781 10.0562 99.7393 10.6227 99.7858 11.1038C99.8324 11.5849 99.9643 11.9884 100.182 12.3143C100.414 12.6402 100.717 12.8807 101.089 13.0359C101.477 13.1756 101.935 13.2454 102.463 13.2454C103.099 13.2454 103.65 13.1213 104.116 12.873C104.597 12.6091 104.993 12.1979 105.303 11.6392C105.629 11.065 105.877 10.32 106.048 9.40438L107.84 0.441921H112.38L110.541 9.68373C110.06 12.1048 109.097 13.9438 107.654 15.2009C106.211 16.4424 104.294 17.0632 101.904 17.0632ZM119.041 16.7373L122.3 0.441921H126.048L130.541 11.5461H128.562L137.269 0.441921H141.203L137.99 16.7373H133.73L135.662 6.86696L136.431 6.84368L129.982 15.131H127.957L124.442 6.8204L125.257 6.89024L123.278 16.7373H119.041ZM148.049 16.9468C146.715 16.9468 145.551 16.7063 144.557 16.2252C143.564 15.7441 142.796 15.0767 142.253 14.2232C141.71 13.3541 141.438 12.3453 141.438 11.1969C141.438 9.80013 141.772 8.55857 142.439 7.47222C143.106 6.37034 144.022 5.50125 145.186 4.86495C146.35 4.22866 147.685 3.91051 149.19 3.91051C150.54 3.91051 151.704 4.15106 152.682 4.63216C153.675 5.09775 154.443 5.75732 154.986 6.61089C155.53 7.46446 155.801 8.47322 155.801 9.63717C155.801 11.0339 155.468 12.2832 154.8 13.3851C154.133 14.487 153.217 15.3561 152.053 15.9924C150.889 16.6287 149.555 16.9468 148.049 16.9468ZM148.305 13.4317C148.895 13.4317 149.415 13.2842 149.865 12.9894C150.315 12.679 150.664 12.26 150.913 11.7323C151.176 11.2046 151.308 10.5839 151.308 9.86996C151.308 9.17159 151.099 8.58961 150.68 8.12403C150.276 7.65845 149.694 7.42566 148.934 7.42566C148.344 7.42566 147.824 7.57309 147.374 7.86796C146.924 8.16283 146.567 8.58185 146.303 9.12503C146.055 9.65269 145.931 10.2735 145.931 10.9874C145.931 11.7323 146.14 12.3298 146.559 12.7799C146.978 13.2144 147.56 13.4317 148.305 13.4317ZM162.111 16.9468C161.133 16.9468 160.295 16.7606 159.597 16.3881C158.898 16.0001 158.402 15.4414 158.107 14.712C157.812 13.9671 157.765 13.0825 157.967 12.0582L160.109 1.30325H164.532L162.39 12.0349C162.313 12.516 162.367 12.8885 162.553 13.1523C162.739 13.4006 163.057 13.5248 163.508 13.5248C163.74 13.5248 163.965 13.4937 164.183 13.4317C164.4 13.3696 164.617 13.2765 164.834 13.1523L165.393 16.2019C164.928 16.4657 164.408 16.6519 163.833 16.7606C163.275 16.8847 162.701 16.9468 162.111 16.9468ZM156.943 7.89124L157.618 4.5856H166.743L166.091 7.89124H156.943ZM173.579 16.9468C172.244 16.9468 171.08 16.7063 170.087 16.2252C169.094 15.7441 168.326 15.0767 167.783 14.2232C167.239 13.3541 166.968 12.3453 166.968 11.1969C166.968 9.80013 167.301 8.55857 167.969 7.47222C168.636 6.37034 169.552 5.50125 170.716 4.86495C171.88 4.22866 173.214 3.91051 174.72 3.91051C176.07 3.91051 177.234 4.15106 178.212 4.63216C179.205 5.09775 179.973 5.75732 180.516 6.61089C181.059 7.46446 181.331 8.47322 181.331 9.63717C181.331 11.0339 180.997 12.2832 180.33 13.3851C179.663 14.487 178.747 15.3561 177.583 15.9924C176.419 16.6287 175.084 16.9468 173.579 16.9468ZM173.835 13.4317C174.425 13.4317 174.945 13.2842 175.395 12.9894C175.845 12.679 176.194 12.26 176.442 11.7323C176.706 11.2046 176.838 10.5839 176.838 9.86996C176.838 9.17159 176.629 8.58961 176.21 8.12403C175.806 7.65845 175.224 7.42566 174.464 7.42566C173.874 7.42566 173.354 7.57309 172.904 7.86796C172.454 8.16283 172.097 8.58185 171.833 9.12503C171.585 9.65269 171.461 10.2735 171.461 10.9874C171.461 11.7323 171.67 12.3298 172.089 12.7799C172.508 13.2144 173.09 13.4317 173.835 13.4317ZM182.054 16.7373L184.568 4.12002H188.758L188.036 7.70501L187.617 6.68073C188.176 5.67196 188.913 4.95807 189.829 4.53905C190.744 4.12002 191.815 3.91051 193.041 3.91051L192.273 7.89124C192.087 7.8602 191.916 7.84468 191.761 7.84468C191.606 7.82916 191.443 7.8214 191.272 7.8214C190.31 7.8214 189.518 8.05419 188.898 8.51978C188.292 8.96984 187.889 9.72253 187.687 10.7779L186.477 16.7373H182.054ZM197.31 16.9468C196.192 16.9468 195.137 16.8304 194.144 16.5976C193.151 16.3493 192.382 16.0545 191.839 15.713L193.445 12.6169C194.035 12.9894 194.726 13.2765 195.517 13.4782C196.309 13.68 197.077 13.7809 197.822 13.7809C198.551 13.7809 199.071 13.7033 199.382 13.5481C199.692 13.3774 199.847 13.1523 199.847 12.873C199.847 12.6247 199.684 12.4462 199.358 12.3376C199.048 12.2134 198.644 12.1125 198.148 12.0349C197.651 11.9573 197.123 11.8564 196.565 11.7323C196.022 11.6081 195.502 11.4297 195.005 11.1969C194.508 10.9641 194.097 10.6382 193.771 10.2192C193.461 9.78461 193.306 9.21039 193.306 8.4965C193.306 7.48773 193.601 6.64193 194.19 5.95907C194.78 5.27622 195.579 4.76408 196.588 4.42265C197.612 4.08122 198.761 3.91051 200.033 3.91051C200.933 3.91051 201.803 3.99587 202.641 4.16658C203.479 4.33729 204.208 4.5856 204.829 4.91151L203.269 8.00763C202.648 7.63517 202.012 7.38686 201.36 7.2627C200.708 7.12303 200.095 7.05319 199.521 7.05319C198.792 7.05319 198.272 7.14631 197.962 7.33254C197.651 7.51877 197.496 7.74381 197.496 8.00763C197.496 8.24043 197.651 8.42666 197.962 8.56633C198.287 8.69049 198.691 8.79913 199.172 8.89224C199.669 8.96984 200.196 9.07072 200.755 9.19487C201.314 9.30351 201.834 9.47422 202.315 9.70701C202.811 9.9398 203.215 10.2657 203.525 10.6847C203.851 11.1038 204.014 11.6702 204.014 12.3841C204.014 13.3774 203.711 14.2154 203.106 14.8983C202.516 15.5811 201.717 16.0932 200.708 16.4347C199.7 16.7761 198.567 16.9468 197.31 16.9468Z" fill="black"/>
</svg>
