<svg width="373" height="60" viewBox="0 0 373 60" fill="none" xmlns="http://www.w3.org/2000/svg">
<path d="M35 4.7946C33.3079 7.47379 24.8473 20.5172 16.1752 33.9132C7.43256 47.3091 0.170543 58.6604 0.029533 59.0834C-0.252487 59.7885 1.43963 60 7.08003 60H14.4125L29.7826 36.3103C42.121 17.3445 45.2937 12.8322 45.9988 13.6077C46.4218 14.1013 53.4723 24.7475 61.5099 37.2269L76.2454 60H83.9305C89.9939 60 91.4745 59.7885 90.981 59.0834C90.5579 58.6604 87.8787 54.5711 84.988 50.1293C82.0973 45.6875 73.6367 32.5736 66.1632 21.0107L52.5557 0.0707684H45.2937H38.1022L35 4.7946Z" fill="black"/>
<path d="M102.753 30.0352V59.9998H134.833H166.983L166.771 53.7954L166.56 47.6615L141.037 47.45L115.444 47.309V23.6898V0.0706159H109.098H102.753V30.0352Z" fill="black"/>
<path d="M178.202 30.0352V59.9998H184.548H190.893V30.0352V0.0706159H184.548H178.202V30.0352Z" fill="black"/>
<path d="M203.016 1.69223C203.51 2.6793 212.182 16.1458 222.264 31.7274L240.595 59.9998L247.998 59.7883L255.401 59.6473L274.579 30.0352L293.827 0.423141L286.565 0.211626C279.585 0.00011088 279.303 0.0706159 277.963 1.76274C277.187 2.74981 270.207 13.3961 262.452 25.3819C254.696 37.4383 248.21 47.309 247.998 47.309C247.787 47.309 240.807 36.7332 232.487 23.8308L217.258 0.423141L209.714 0.211626L202.1 0.00011088L203.016 1.69223Z" fill="black"/>
<path d="M305.239 6.20451L305.45 12.4089L338.799 12.6205L372.078 12.7615V6.41603V0.0705799H338.588H305.027L305.239 6.20451Z" fill="black"/>
<path d="M305.399 24.2541C305.187 24.8182 305.117 27.7089 305.258 30.8111L305.469 36.381L338.818 36.5925L372.097 36.7335V30.0355V23.3376H338.959C311.885 23.3376 305.681 23.4786 305.399 24.2541Z" fill="black"/>
<path d="M305.599 47.8025C305.317 48.014 305.105 50.9047 305.105 54.1479V59.9998H338.595H372.085V53.6544V47.309H339.089C320.899 47.309 305.811 47.5205 305.599 47.8025Z" fill="black"/>
</svg>
